Coordinates
version=1
nRows=5
nColumns=46
inDegrees=yes

Units are S.I. units (second, meters, Newtons, ...)
Angles are in degrees.

endheader
time	pelvis_tilt	pelvis_list	pelvis_rotation	pelvis_tx	pelvis_ty	pelvis_tz	bb_angle	bb_tx	bb_ty	bb_tz	hip_flexion_r	hip_adduction_r	hip_rotation_r	knee_angle_r	knee_angle_r_beta	ankle_angle_r	subtalar_angle_r	mtp_angle_r	crank_angle_r	hip_flexion_l	hip_adduction_l	hip_rotation_l	knee_angle_l	knee_angle_l_beta	ankle_angle_l	subtalar_angle_l	mtp_angle_l	crank_angle_l	lumbar_extension	lumbar_bending	lumbar_rotation	arm_flex_r	arm_add_r	arm_rot_r	elbow_flex_r	pro_sup_r	wrist_flex_r	wrist_dev_r	arm_flex_l	arm_add_l	arm_rot_l	elbow_flex_l	pro_sup_l	wrist_flex_l	wrist_dev_l
      0.00500000	     -6.70365223	      1.38372760	      3.13329890	      0.17857615	      1.04721240	     -0.23951611	      0.00000000	      0.50000000	      0.00000000	      0.25000000	     37.94697415	     -6.78450015	      1.50690243	     77.19232362	      1.34726020	     14.31398100	     -3.72595440	      0.00000000	      0.00000000	     73.68355163	     -5.21405750	     -0.89694568	     84.71228285	      1.47850825	     -3.06329970	     -5.26111820	      0.00000000	      0.00000000	    -57.09541042	     -0.37205888	     -4.40518951	     88.77152669	     -6.41576088	     39.26577167	     24.45326541	     34.93462467	      0.00000000	      0.00000000	     81.87598747	    -11.60728697	     26.69672055	     40.65904978	     39.94942661	      0.00000000	      0.00000000
      0.01000000	     -6.73053569	      1.39106306	      3.18919280	      0.17858654	      1.04718659	     -0.23952642	      0.00000000	      0.50000000	      0.00000000	      0.25000000	     37.88985736	     -6.82908530	      1.43483177	     76.97806348	      1.34352066	     14.24357301	     -3.67512631	      0.00000000	      0.00000000	     73.85250017	     -5.17269047	     -0.86534083	     84.92679051	      1.48225212	     -3.04990613	     -5.21959110	      0.00000000	      0.00000000	    -57.08010754	     -0.32379376	     -4.49816850	     88.76016458	     -6.20704541	     38.69000870	     24.44741182	     34.83456202	      0.00000000	      0.00000000	     81.85713521	    -11.78144764	     26.86394779	     40.75794165	     40.04434915	      0.00000000	      0.00000000
      0.01500000	     -6.72419746	      1.47069625	      3.25013445	      0.17856160	      1.04728142	     -0.23957990	      0.00000000	      0.50000000	      0.00000000	      0.25000000	     37.79951890	     -6.95127482	      1.41023088	     76.75373595	      1.33960541	     14.18617645	     -3.58700700	      0.00000000	      0.00000000	     73.94159769	     -5.07507845	     -0.89878929	     85.08570373	      1.48502568	     -3.10103308	     -5.27938317	      0.00000000	      0.00000000	    -57.11553255	     -0.34154838	     -4.61755793	     88.71696963	     -5.90684419	     37.31720233	     24.31704513	     35.43001395	      0.00000000	      0.00000000	     81.86688461	    -11.66088950	     26.40966367	     40.68196987	     40.28718613	      0.00000000	      0.00000000
      0.02000000	     -6.75744072	      1.42862281	      3.24112041	      0.17868443	      1.04714254	     -0.23971629	      0.00000000	      0.50000000	      0.00000000	      0.25000000	     37.75220996	     -6.93982431	      1.39951861	     76.55108529	      1.33606848	     14.20538679	     -3.30499879	      0.00000000	      0.00000000	     74.13549381	     -5.09225144	     -0.85419659	     85.36179834	      1.48984444	     -3.11283049	     -5.43053595	      0.00000000	      0.00000000	    -57.12455374	     -0.32136762	     -4.52962324	     88.68790528	     -6.08687244	     37.00379603	     24.78609393	     35.31582414	      0.00000000	      0.00000000	     81.88501649	    -11.63188481	     26.41872823	     40.75258331	     40.23957680	      0.00000000	      0.00000000
      0.02500000	     -6.77447410	      1.46825850	      3.26500911	      0.17849133	      1.04737836	     -0.23980858	      0.00000000	      0.50000000	      0.00000000	      0.25000000	     37.73031451	     -7.02357296	      1.39307603	     76.37219098	      1.33294619	     14.22099656	     -3.06514373	      0.00000000	      0.00000000	     74.26203482	     -5.03506349	     -0.83905125	     85.53329971	      1.49283770	     -3.17399304	     -5.52209107	      0.00000000	      0.00000000	    -57.12902823	     -0.32843576	     -4.60996040	     88.69241996	     -6.01671676	     36.81526538	     24.72753294	     35.10974604	      0.00000000	      0.00000000	     81.84906924	    -11.66965062	     26.21148413	     40.96822654	     40.15903335	      0.00000000	      0.00000000
